<svg xmlns="http://www.w3.org/2000/svg" xmlns:xlink="http://www.w3.org/1999/xlink" width="1000" zoomAndPan="magnify" viewBox="0 0 750 749.999995" height="1000" preserveAspectRatio="xMidYMid meet" version="1.0"><defs><clipPath id="02f8544a3f"><path d="M 128 221 L 622 221 L 622 666.828125 L 128 666.828125 Z M 128 221 " clip-rule="nonzero"/></clipPath><clipPath id="c71340b930"><path d="M 569.273438 257.234375 C 540.40625 233.789062 508.167969 221.890625 473.417969 221.890625 C 451.078125 221.890625 428.875 226.960938 409.828125 235.082031 C 387.515625 244.605469 362.476562 244.605469 340.167969 235.082031 C 321.117188 226.960938 298.914062 221.890625 276.574219 221.890625 C 241.828125 221.890625 209.585938 233.789062 180.71875 257.234375 C 117.019531 309.003906 111.300781 399.84375 166.472656 483.265625 C 188.433594 516.503906 224.453125 553.84375 269.453125 591.507812 C 271.261719 593.015625 273.851562 593.289062 275.902344 592.101562 C 327.160156 562.773438 384.195312 517.800781 414.871094 486.90625 C 417.300781 484.453125 416.921875 480.40625 414.089844 478.410156 L 382.390625 456.070312 C 372.863281 449.378906 360.15625 449.542969 350.796875 456.449219 C 333.3125 469.371094 312.726562 482.5625 291.144531 494.867188 C 288.960938 496.109375 286.179688 495.730469 284.371094 493.949219 C 262.382812 472.097656 247.035156 453.859375 236.054688 437.238281 C 212.742188 401.976562 204.785156 356.921875 236.671875 325.328125 C 267.671875 294.597656 310.730469 303.3125 341.917969 321.253906 C 362.425781 333.042969 387.570312 333.042969 408.074219 321.253906 C 439.234375 303.3125 482.292969 294.597656 513.292969 325.328125 C 545.183594 356.921875 536.792969 401.707031 513.914062 437.238281 C 483.507812 484.480469 413.441406 553.304688 310.894531 615.328125 C 307.492188 617.378906 307.222656 622.210938 310.382812 624.582031 C 329.777344 639.097656 349.636719 652.695312 369.222656 664.726562 C 372.757812 666.886719 377.207031 666.886719 380.742188 664.726562 C 461.382812 615.277344 546.691406 538.976562 583.519531 483.238281 C 638.691406 399.816406 632.945312 308.980469 569.246094 257.207031 " clip-rule="nonzero"/></clipPath><clipPath id="345a9178c4"><path d="M 0 0.761719 L 494 0.761719 L 494 445.828125 L 0 445.828125 Z M 0 0.761719 " clip-rule="nonzero"/></clipPath><clipPath id="03aba09279"><path d="M 441.273438 36.234375 C 412.40625 12.789062 380.167969 0.890625 345.417969 0.890625 C 323.078125 0.890625 300.875 5.960938 281.828125 14.082031 C 259.515625 23.605469 234.476562 23.605469 212.167969 14.082031 C 193.117188 5.960938 170.914062 0.890625 148.574219 0.890625 C 113.828125 0.890625 81.585938 12.789062 52.71875 36.234375 C -10.980469 88.003906 -16.699219 178.84375 38.472656 262.265625 C 60.433594 295.503906 96.453125 332.84375 141.453125 370.507812 C 143.261719 372.015625 145.851562 372.289062 147.902344 371.101562 C 199.160156 341.773438 256.195312 296.800781 286.871094 265.90625 C 289.300781 263.453125 288.921875 259.40625 286.089844 257.410156 L 254.390625 235.070312 C 244.863281 228.378906 232.15625 228.542969 222.796875 235.449219 C 205.3125 248.371094 184.726562 261.5625 163.144531 273.867188 C 160.960938 275.109375 158.179688 274.730469 156.371094 272.949219 C 134.382812 251.097656 119.035156 232.859375 108.054688 216.238281 C 84.742188 180.976562 76.785156 135.921875 108.671875 104.328125 C 139.671875 73.597656 182.730469 82.3125 213.917969 100.253906 C 234.425781 112.042969 259.570312 112.042969 280.074219 100.253906 C 311.234375 82.3125 354.292969 73.597656 385.292969 104.328125 C 417.183594 135.921875 408.792969 180.707031 385.914062 216.238281 C 355.507812 263.480469 285.441406 332.304688 182.894531 394.328125 C 179.492188 396.378906 179.222656 401.210938 182.382812 403.582031 C 201.777344 418.097656 221.636719 431.695312 241.222656 443.726562 C 244.757812 445.886719 249.207031 445.886719 252.742188 443.726562 C 333.382812 394.277344 418.691406 317.976562 455.519531 262.238281 C 510.691406 178.816406 504.945312 87.980469 441.246094 36.207031 " clip-rule="nonzero"/></clipPath><clipPath id="3f82068bc6"><rect x="0" width="494" y="0" height="446"/></clipPath><clipPath id="8f97db8e36"><path d="M 307 83 L 443 83 L 443 218 L 307 218 Z M 307 83 " clip-rule="nonzero"/></clipPath><clipPath id="16e2533f34"><path d="M 442.066406 150.691406 C 442.066406 185.144531 416.085938 213.527344 382.660156 217.304688 C 380.148438 217.625 377.585938 217.761719 374.996094 217.761719 C 337.953125 217.761719 307.925781 187.734375 307.925781 150.691406 C 307.925781 113.648438 337.953125 83.621094 374.996094 83.621094 C 377.585938 83.621094 380.121094 83.753906 382.632812 84.078125 C 416.085938 87.855469 442.066406 116.238281 442.066406 150.691406 " clip-rule="nonzero"/></clipPath><clipPath id="7dc533c9bb"><path d="M 0.921875 0.519531 L 135.078125 0.519531 L 135.078125 134.921875 L 0.921875 134.921875 Z M 0.921875 0.519531 " clip-rule="nonzero"/></clipPath><clipPath id="a9532b6dbc"><path d="M 135.066406 67.691406 C 135.066406 102.144531 109.085938 130.527344 75.660156 134.304688 C 73.148438 134.625 70.585938 134.761719 67.996094 134.761719 C 30.953125 134.761719 0.925781 104.734375 0.925781 67.691406 C 0.925781 30.648438 30.953125 0.621094 67.996094 0.621094 C 70.585938 0.621094 73.121094 0.753906 75.632812 1.078125 C 109.085938 4.855469 135.066406 33.238281 135.066406 67.691406 " clip-rule="nonzero"/></clipPath><clipPath id="f31764e5e8"><rect x="0" width="136" y="0" height="135"/></clipPath><clipPath id="5ecf205d7c"><path d="M 374 84 L 443 84 L 443 218 L 374 218 Z M 374 84 " clip-rule="nonzero"/></clipPath><clipPath id="81e891dd8d"><path d="M 382.660156 217.304688 C 377.640625 195.910156 374.996094 173.625 374.996094 150.691406 C 374.996094 127.785156 377.640625 105.472656 382.632812 84.078125 C 416.085938 87.855469 442.066406 116.238281 442.066406 150.691406 C 442.066406 185.144531 416.085938 213.527344 382.660156 217.304688 " clip-rule="nonzero"/></clipPath><clipPath id="6153b13b35"><path d="M 0.878906 0 L 68.078125 0 L 68.078125 133.441406 L 0.878906 133.441406 Z M 0.878906 0 " clip-rule="nonzero"/></clipPath><clipPath id="d8d4be2a52"><path d="M 8.660156 133.304688 C 3.640625 111.910156 0.996094 89.625 0.996094 66.691406 C 0.996094 43.785156 3.640625 21.472656 8.632812 0.078125 C 42.085938 3.855469 68.066406 32.238281 68.066406 66.691406 C 68.066406 101.144531 42.085938 129.527344 8.660156 133.304688 " clip-rule="nonzero"/></clipPath><clipPath id="fc0c59c620"><rect x="0" width="69" y="0" height="134"/></clipPath><clipPath id="8305b97bce"><path d="M 389.207031 221 L 622 221 L 622 437 L 389.207031 437 Z M 389.207031 221 " clip-rule="nonzero"/></clipPath><clipPath id="32901da5dc"><path d="M 608.042969 436.132812 C 579.878906 430.414062 553.167969 420.644531 528.589844 407.425781 C 538.410156 378.882812 536.710938 348.53125 513.292969 325.328125 C 487.445312 299.726562 453.238281 301.53125 424.53125 313.214844 C 409.636719 291.117188 397.6875 266.890625 389.296875 241.042969 C 396.28125 239.910156 403.191406 237.914062 409.828125 235.082031 C 428.875 226.960938 451.078125 221.890625 473.417969 221.890625 C 508.167969 221.890625 540.40625 233.789062 569.273438 257.234375 C 621.101562 299.347656 634.539062 367.335938 608.042969 436.132812 " clip-rule="nonzero"/></clipPath><clipPath id="c6c1785d88"><path d="M 0.28125 0.761719 L 233 0.761719 L 233 215.320312 L 0.28125 215.320312 Z M 0.28125 0.761719 " clip-rule="nonzero"/></clipPath><clipPath id="255e5c6f09"><path d="M 219.042969 215.132812 C 190.878906 209.414062 164.167969 199.644531 139.589844 186.425781 C 149.410156 157.882812 147.710938 127.53125 124.292969 104.328125 C 98.445312 78.726562 64.238281 80.53125 35.53125 92.214844 C 20.636719 70.117188 8.6875 45.890625 0.296875 20.042969 C 7.28125 18.910156 14.191406 16.914062 20.828125 14.082031 C 39.875 5.960938 62.078125 0.890625 84.417969 0.890625 C 119.167969 0.890625 151.40625 12.789062 180.273438 36.234375 C 232.101562 78.347656 245.539062 146.335938 219.042969 215.132812 " clip-rule="nonzero"/></clipPath><clipPath id="7b8748edaa"><rect x="0" width="233" y="0" height="216"/></clipPath></defs><rect x="-75" width="900" fill="#ffffff" y="-74.999999" height="899.999994" fill-opacity="1"/><rect x="-75" width="900" fill="#037eff" y="-74.999999" height="899.999994" fill-opacity="1"/><g clip-path="url(#02f8544a3f)"><g clip-path="url(#c71340b930)"><g transform="matrix(1, 0, 0, 1, 128, 221)"><g clip-path="url(#3f82068bc6)"><g clip-path="url(#345a9178c4)"><g clip-path="url(#03aba09279)"><rect x="-293" width="1080" fill="#ffffff" height="1079.999992" y="-385.999999" fill-opacity="1"/></g></g></g></g></g></g><g clip-path="url(#8f97db8e36)"><g clip-path="url(#16e2533f34)"><g transform="matrix(1, 0, 0, 1, 307, 83)"><g clip-path="url(#f31764e5e8)"><g clip-path="url(#7dc533c9bb)"><g clip-path="url(#a9532b6dbc)"><rect x="-472" width="1080" fill="#ffffff" height="1079.999992" y="-247.999999" fill-opacity="1"/></g></g></g></g></g></g><g clip-path="url(#5ecf205d7c)"><g clip-path="url(#81e891dd8d)"><g transform="matrix(1, 0, 0, 1, 374, 84)"><g clip-path="url(#fc0c59c620)"><g clip-path="url(#6153b13b35)"><g clip-path="url(#d8d4be2a52)"><rect x="-539" width="1080" fill="#ffffff" height="1079.999992" y="-248.999999" fill-opacity="1"/></g></g></g></g></g></g><g clip-path="url(#8305b97bce)"><g clip-path="url(#32901da5dc)"><g transform="matrix(1, 0, 0, 1, 389, 221)"><g clip-path="url(#7b8748edaa)"><g clip-path="url(#c6c1785d88)"><g clip-path="url(#255e5c6f09)"><rect x="-554" width="1080" fill="#ffffff" height="1079.999992" y="-385.999999" fill-opacity="1"/></g></g></g></g></g></g></svg>