<svg xmlns="http://www.w3.org/2000/svg" xmlns:xlink="http://www.w3.org/1999/xlink" width="130" zoomAndPan="magnify" viewBox="0 0 97.5 30.000001" height="40" preserveAspectRatio="xMidYMid meet" version="1.0"><defs><g/><clipPath id="c79009b4f3"><path d="M 1.332031 0 L 95.683594 0 L 95.683594 29.03125 L 1.332031 29.03125 Z M 1.332031 0 " clip-rule="nonzero"/></clipPath><clipPath id="6c75aaa1d4"><path d="M 0.90625 7.203125 L 24.316406 7.203125 L 24.316406 28.3125 L 0.90625 28.3125 Z M 0.90625 7.203125 " clip-rule="nonzero"/></clipPath><clipPath id="db65f61bdf"><path d="M 21.792969 8.949219 C 20.429688 7.839844 18.90625 7.277344 17.261719 7.277344 C 16.207031 7.277344 15.15625 7.519531 14.257812 7.902344 C 13.203125 8.351562 12.019531 8.351562 10.964844 7.902344 C 10.0625 7.519531 9.015625 7.277344 7.957031 7.277344 C 6.316406 7.277344 4.792969 7.839844 3.425781 8.949219 C 0.417969 11.398438 0.144531 15.691406 2.753906 19.632812 C 3.792969 21.203125 5.496094 22.96875 7.621094 24.75 C 7.707031 24.820312 7.828125 24.835938 7.925781 24.777344 C 10.347656 23.390625 13.046875 21.265625 14.496094 19.804688 C 14.609375 19.691406 14.59375 19.5 14.457031 19.402344 L 12.960938 18.347656 C 12.511719 18.03125 11.910156 18.039062 11.464844 18.367188 C 10.640625 18.976562 9.667969 19.601562 8.648438 20.183594 C 8.542969 20.242188 8.414062 20.222656 8.328125 20.140625 C 7.289062 19.105469 6.5625 18.242188 6.042969 17.457031 C 4.941406 15.792969 4.566406 13.660156 6.070312 12.167969 C 7.539062 10.714844 9.574219 11.128906 11.046875 11.976562 C 12.015625 12.53125 13.203125 12.53125 14.175781 11.976562 C 15.648438 11.128906 17.683594 10.714844 19.148438 12.167969 C 20.65625 13.660156 20.257812 15.777344 19.175781 17.457031 C 17.738281 19.691406 14.429688 22.945312 9.582031 25.875 C 9.417969 25.972656 9.40625 26.203125 9.554688 26.3125 C 10.472656 27 11.410156 27.644531 12.335938 28.210938 C 12.503906 28.3125 12.714844 28.3125 12.882812 28.210938 C 16.695312 25.875 20.726562 22.265625 22.46875 19.632812 C 25.074219 15.6875 24.804688 11.394531 21.792969 8.949219 " clip-rule="nonzero"/></clipPath><clipPath id="2787f9b4ee"><path d="M 0.90625 0.203125 L 24.316406 0.203125 L 24.316406 21.3125 L 0.90625 21.3125 Z M 0.90625 0.203125 " clip-rule="nonzero"/></clipPath><clipPath id="f99b98aa18"><path d="M 21.792969 1.949219 C 20.429688 0.839844 18.90625 0.277344 17.261719 0.277344 C 16.207031 0.277344 15.15625 0.519531 14.257812 0.902344 C 13.203125 1.351562 12.019531 1.351562 10.964844 0.902344 C 10.0625 0.519531 9.015625 0.277344 7.957031 0.277344 C 6.316406 0.277344 4.792969 0.839844 3.425781 1.949219 C 0.417969 4.398438 0.144531 8.691406 2.753906 12.632812 C 3.792969 14.203125 5.496094 15.96875 7.621094 17.75 C 7.707031 17.820312 7.828125 17.835938 7.925781 17.777344 C 10.347656 16.390625 13.046875 14.265625 14.496094 12.804688 C 14.609375 12.691406 14.59375 12.5 14.457031 12.402344 L 12.960938 11.347656 C 12.511719 11.03125 11.910156 11.039062 11.464844 11.367188 C 10.640625 11.976562 9.667969 12.601562 8.648438 13.183594 C 8.542969 13.242188 8.414062 13.222656 8.328125 13.140625 C 7.289062 12.105469 6.5625 11.242188 6.042969 10.457031 C 4.941406 8.792969 4.566406 6.660156 6.070312 5.167969 C 7.539062 3.714844 9.574219 4.128906 11.046875 4.976562 C 12.015625 5.53125 13.203125 5.53125 14.175781 4.976562 C 15.648438 4.128906 17.683594 3.714844 19.148438 5.167969 C 20.65625 6.660156 20.257812 8.777344 19.175781 10.457031 C 17.738281 12.691406 14.429688 15.945312 9.582031 18.875 C 9.417969 18.972656 9.40625 19.203125 9.554688 19.3125 C 10.472656 20 11.410156 20.644531 12.335938 21.210938 C 12.503906 21.3125 12.714844 21.3125 12.882812 21.210938 C 16.695312 18.875 20.726562 15.265625 22.46875 12.632812 C 25.074219 8.6875 24.804688 4.394531 21.792969 1.949219 " clip-rule="nonzero"/></clipPath><clipPath id="a62859023e"><rect x="0" width="25" y="0" height="22"/></clipPath><clipPath id="b9f43257bd"><path d="M 9.347656 0.679688 L 15.871094 0.679688 L 15.871094 7.109375 L 9.347656 7.109375 Z M 9.347656 0.679688 " clip-rule="nonzero"/></clipPath><clipPath id="1af797b598"><path d="M 15.78125 3.914062 C 15.78125 5.542969 14.554688 6.882812 12.972656 7.0625 C 12.855469 7.078125 12.734375 7.082031 12.609375 7.082031 C 10.859375 7.082031 9.441406 5.664062 9.441406 3.914062 C 9.441406 2.160156 10.859375 0.742188 12.609375 0.742188 C 12.734375 0.742188 12.851562 0.75 12.972656 0.765625 C 14.554688 0.941406 15.78125 2.285156 15.78125 3.914062 " clip-rule="nonzero"/></clipPath><clipPath id="20c3a97b27"><path d="M 0.390625 0.695312 L 6.871094 0.695312 L 6.871094 7.109375 L 0.390625 7.109375 Z M 0.390625 0.695312 " clip-rule="nonzero"/></clipPath><clipPath id="4de0c54d83"><path d="M 6.78125 3.914062 C 6.78125 5.542969 5.554688 6.882812 3.972656 7.0625 C 3.855469 7.078125 3.734375 7.082031 3.609375 7.082031 C 1.859375 7.082031 0.441406 5.664062 0.441406 3.914062 C 0.441406 2.160156 1.859375 0.742188 3.609375 0.742188 C 3.734375 0.742188 3.851562 0.75 3.972656 0.765625 C 5.554688 0.941406 6.78125 2.285156 6.78125 3.914062 " clip-rule="nonzero"/></clipPath><clipPath id="2ff9d25d1d"><rect x="0" width="7" y="0" height="8"/></clipPath><clipPath id="dd3bb183b2"><path d="M 12.515625 0.679688 L 15.871094 0.679688 L 15.871094 7.109375 L 12.515625 7.109375 Z M 12.515625 0.679688 " clip-rule="nonzero"/></clipPath><clipPath id="edc72559a9"><path d="M 12.972656 7.0625 C 12.734375 6.050781 12.609375 4.996094 12.609375 3.914062 C 12.609375 2.832031 12.734375 1.777344 12.972656 0.765625 C 14.554688 0.941406 15.78125 2.285156 15.78125 3.914062 C 15.78125 5.542969 14.554688 6.882812 12.972656 7.0625 " clip-rule="nonzero"/></clipPath><clipPath id="d003fd25d5"><path d="M 0.515625 0.695312 L 3.871094 0.695312 L 3.871094 7.109375 L 0.515625 7.109375 Z M 0.515625 0.695312 " clip-rule="nonzero"/></clipPath><clipPath id="50b6f1973e"><path d="M 0.972656 7.0625 C 0.734375 6.050781 0.609375 4.996094 0.609375 3.914062 C 0.609375 2.832031 0.734375 1.777344 0.972656 0.765625 C 2.554688 0.941406 3.78125 2.285156 3.78125 3.914062 C 3.78125 5.542969 2.554688 6.882812 0.972656 7.0625 " clip-rule="nonzero"/></clipPath><clipPath id="f418b70572"><rect x="0" width="4" y="0" height="8"/></clipPath><clipPath id="27e21ba652"><path d="M 13.28125 7.203125 L 24.316406 7.203125 L 24.316406 17.46875 L 13.28125 17.46875 Z M 13.28125 7.203125 " clip-rule="nonzero"/></clipPath><clipPath id="26a9445d09"><path d="M 23.625 17.40625 C 22.296875 17.136719 21.03125 16.675781 19.871094 16.050781 C 20.335938 14.699219 20.253906 13.265625 19.148438 12.167969 C 17.925781 10.957031 16.308594 11.042969 14.953125 11.59375 C 14.25 10.550781 13.683594 9.40625 13.285156 8.183594 C 13.617188 8.128906 13.945312 8.035156 14.257812 7.902344 C 15.15625 7.519531 16.207031 7.277344 17.261719 7.277344 C 18.90625 7.277344 20.429688 7.839844 21.792969 8.949219 C 24.242188 10.941406 24.878906 14.152344 23.625 17.40625 " clip-rule="nonzero"/></clipPath><clipPath id="c863d8d41c"><path d="M 0.28125 0.203125 L 11.316406 0.203125 L 11.316406 10.417969 L 0.28125 10.417969 Z M 0.28125 0.203125 " clip-rule="nonzero"/></clipPath><clipPath id="7720c8dd7d"><path d="M 10.625 10.40625 C 9.296875 10.136719 8.03125 9.675781 6.871094 9.050781 C 7.335938 7.699219 7.253906 6.265625 6.148438 5.167969 C 4.925781 3.957031 3.308594 4.042969 1.953125 4.59375 C 1.25 3.550781 0.683594 2.40625 0.285156 1.183594 C 0.617188 1.128906 0.945312 1.035156 1.257812 0.902344 C 2.15625 0.519531 3.207031 0.277344 4.261719 0.277344 C 5.90625 0.277344 7.429688 0.839844 8.792969 1.949219 C 11.242188 3.941406 11.878906 7.152344 10.625 10.40625 " clip-rule="nonzero"/></clipPath><clipPath id="2a73987974"><rect x="0" width="12" y="0" height="11"/></clipPath><clipPath id="211db31af9"><path d="M 27 3 L 94.628906 3 L 94.628906 25 L 27 25 Z M 27 3 " clip-rule="nonzero"/></clipPath><clipPath id="36dd474e70"><rect x="0" width="68" y="0" height="22"/></clipPath><clipPath id="3f75e7eba1"><rect x="0" width="95" y="0" height="30"/></clipPath></defs><g clip-path="url(#c79009b4f3)"><g transform="matrix(1, 0, 0, 1, 1, 0.000000000000005692)"><g clip-path="url(#3f75e7eba1)"><g clip-path="url(#6c75aaa1d4)"><g clip-path="url(#db65f61bdf)"><g transform="matrix(1, 0, 0, 1, 0, 7)"><g clip-path="url(#a62859023e)"><g clip-path="url(#2787f9b4ee)"><g clip-path="url(#f99b98aa18)"><path fill="#037eff" d="M 0.332031 -6.894531 L 24.890625 -6.894531 L 24.890625 21.886719 L 0.332031 21.886719 Z M 0.332031 -6.894531 " fill-opacity="1" fill-rule="nonzero"/></g></g></g></g></g></g><g clip-path="url(#b9f43257bd)"><g clip-path="url(#1af797b598)"><g transform="matrix(1, 0, 0, 1, 9, 0.000000000000005773)"><g clip-path="url(#2ff9d25d1d)"><g clip-path="url(#20c3a97b27)"><g clip-path="url(#4de0c54d83)"><path fill="#0667f8" d="M -8.667969 0.105469 L 15.890625 0.105469 L 15.890625 28.886719 L -8.667969 28.886719 Z M -8.667969 0.105469 " fill-opacity="1" fill-rule="nonzero"/></g></g></g></g></g></g><g clip-path="url(#dd3bb183b2)"><g clip-path="url(#edc72559a9)"><g transform="matrix(1, 0, 0, 1, 12, 0.000000000000005773)"><g clip-path="url(#f418b70572)"><g clip-path="url(#d003fd25d5)"><g clip-path="url(#50b6f1973e)"><path fill="#0667f8" d="M -11.667969 0.105469 L 12.890625 0.105469 L 12.890625 28.886719 L -11.667969 28.886719 Z M -11.667969 0.105469 " fill-opacity="1" fill-rule="nonzero"/></g></g></g></g></g></g><g clip-path="url(#27e21ba652)"><g clip-path="url(#26a9445d09)"><g transform="matrix(1, 0, 0, 1, 13, 7)"><g clip-path="url(#2a73987974)"><g clip-path="url(#c863d8d41c)"><g clip-path="url(#7720c8dd7d)"><path fill="#037eff" d="M -12.667969 -6.894531 L 11.890625 -6.894531 L 11.890625 21.886719 L -12.667969 21.886719 Z M -12.667969 -6.894531 " fill-opacity="1" fill-rule="nonzero"/></g></g></g></g></g></g><g clip-path="url(#211db31af9)"><g transform="matrix(1, 0, 0, 1, 27, 3)"><g clip-path="url(#36dd474e70)"><g fill="#001f40" fill-opacity="1"><g transform="translate(0.431136, 17.097776)"><g><path d="M 1.25 0 L 1.25 -11.34375 L 2.96875 -11.34375 L 2.96875 -1.515625 L 7.09375 -1.515625 L 7.09375 0 Z M 1.25 0 "/></g></g></g><g fill="#001f40" fill-opacity="1"><g transform="translate(6.992602, 17.097776)"><g><path d="M 1.984375 -10.0625 C 1.304688 -10.0625 0.96875 -10.347656 0.96875 -10.921875 L 0.96875 -11.21875 C 0.96875 -11.789062 1.304688 -12.078125 1.984375 -12.078125 C 2.648438 -12.078125 2.984375 -11.789062 2.984375 -11.21875 L 2.984375 -10.921875 C 2.984375 -10.347656 2.648438 -10.0625 1.984375 -10.0625 Z M 1.15625 -8.453125 L 2.828125 -8.453125 L 2.828125 0 L 1.15625 0 Z M 1.15625 -8.453125 "/></g></g></g><g fill="#001f40" fill-opacity="1"><g transform="translate(9.964626, 17.097776)"><g><path d="M 1.140625 -12.03125 L 2.8125 -12.03125 L 2.8125 -7.0625 L 3 -7.0625 C 3.144531 -7.5625 3.398438 -7.945312 3.765625 -8.21875 C 4.128906 -8.5 4.554688 -8.640625 5.046875 -8.640625 C 6.054688 -8.640625 6.804688 -8.257812 7.296875 -7.5 C 7.785156 -6.738281 8.03125 -5.644531 8.03125 -4.21875 C 8.03125 -2.800781 7.785156 -1.710938 7.296875 -0.953125 C 6.804688 -0.191406 6.054688 0.1875 5.046875 0.1875 C 4.554688 0.1875 4.128906 0.0507812 3.765625 -0.21875 C 3.398438 -0.5 3.144531 -0.882812 3 -1.375 L 2.8125 -1.375 L 2.8125 0 L 1.140625 0 Z M 4.453125 -1.234375 C 5.023438 -1.234375 5.46875 -1.410156 5.78125 -1.765625 C 6.09375 -2.128906 6.25 -2.632812 6.25 -3.28125 L 6.25 -5.171875 C 6.25 -5.816406 6.09375 -6.316406 5.78125 -6.671875 C 5.46875 -7.035156 5.023438 -7.21875 4.453125 -7.21875 C 3.972656 -7.21875 3.578125 -7.09375 3.265625 -6.84375 C 2.960938 -6.59375 2.8125 -6.25 2.8125 -5.8125 L 2.8125 -2.625 C 2.8125 -2.195312 2.960938 -1.859375 3.265625 -1.609375 C 3.578125 -1.359375 3.972656 -1.234375 4.453125 -1.234375 Z M 4.453125 -1.234375 "/></g></g></g><g fill="#001f40" fill-opacity="1"><g transform="translate(17.663021, 17.097776)"><g><path d="M 1.140625 0 L 1.140625 -8.453125 L 2.8125 -8.453125 L 2.8125 -6.78125 L 3 -6.78125 C 3.125 -7.320312 3.347656 -7.734375 3.671875 -8.015625 C 4.003906 -8.304688 4.425781 -8.453125 4.9375 -8.453125 L 5.359375 -8.453125 L 5.359375 -6.75 L 4.640625 -6.75 C 4.046875 -6.75 3.59375 -6.632812 3.28125 -6.40625 C 2.96875 -6.175781 2.8125 -5.8125 2.8125 -5.3125 L 2.8125 0 Z M 1.140625 0 "/></g></g></g><g fill="#001f40" fill-opacity="1"><g transform="translate(22.307951, 17.097776)"><g><path d="M 1.984375 -10.0625 C 1.304688 -10.0625 0.96875 -10.347656 0.96875 -10.921875 L 0.96875 -11.21875 C 0.96875 -11.789062 1.304688 -12.078125 1.984375 -12.078125 C 2.648438 -12.078125 2.984375 -11.789062 2.984375 -11.21875 L 2.984375 -10.921875 C 2.984375 -10.347656 2.648438 -10.0625 1.984375 -10.0625 Z M 1.15625 -8.453125 L 2.828125 -8.453125 L 2.828125 0 L 1.15625 0 Z M 1.15625 -8.453125 "/></g></g></g><g fill="#001f40" fill-opacity="1"><g transform="translate(25.279975, 17.097776)"><g><path d="M 4.046875 0.1875 C 2.941406 0.1875 2.085938 -0.160156 1.484375 -0.859375 C 0.890625 -1.566406 0.59375 -2.6875 0.59375 -4.21875 C 0.59375 -5.757812 0.890625 -6.878906 1.484375 -7.578125 C 2.085938 -8.285156 2.941406 -8.640625 4.046875 -8.640625 C 4.859375 -8.640625 5.507812 -8.453125 6 -8.078125 C 6.488281 -7.710938 6.835938 -7.21875 7.046875 -6.59375 L 5.671875 -5.953125 C 5.578125 -6.367188 5.398438 -6.6875 5.140625 -6.90625 C 4.890625 -7.132812 4.523438 -7.25 4.046875 -7.25 C 2.929688 -7.25 2.375 -6.570312 2.375 -5.21875 L 2.375 -3.234375 C 2.375 -1.878906 2.929688 -1.203125 4.046875 -1.203125 C 4.535156 -1.203125 4.914062 -1.316406 5.1875 -1.546875 C 5.46875 -1.785156 5.679688 -2.128906 5.828125 -2.578125 L 7.09375 -1.890625 C 6.851562 -1.222656 6.476562 -0.707031 5.96875 -0.34375 C 5.46875 0.0078125 4.828125 0.1875 4.046875 0.1875 Z M 4.046875 0.1875 "/></g></g></g><g fill="#001f40" fill-opacity="1"><g transform="translate(31.760228, 17.097776)"><g><path d="M 6.5625 0 C 6.15625 0 5.835938 -0.113281 5.609375 -0.34375 C 5.378906 -0.570312 5.265625 -0.925781 5.265625 -1.40625 L 5.0625 -1.40625 C 4.945312 -0.90625 4.703125 -0.515625 4.328125 -0.234375 C 3.953125 0.046875 3.492188 0.1875 2.953125 0.1875 C 2.148438 0.1875 1.550781 -0.0234375 1.15625 -0.453125 C 0.757812 -0.878906 0.5625 -1.484375 0.5625 -2.265625 C 0.5625 -3.109375 0.832031 -3.75 1.375 -4.1875 C 1.914062 -4.632812 2.710938 -4.859375 3.765625 -4.859375 L 5.171875 -4.859375 L 5.171875 -5.671875 C 5.171875 -6.210938 5.050781 -6.609375 4.8125 -6.859375 C 4.570312 -7.117188 4.191406 -7.25 3.671875 -7.25 C 3.273438 -7.25 2.929688 -7.160156 2.640625 -6.984375 C 2.347656 -6.816406 2.085938 -6.523438 1.859375 -6.109375 L 0.859375 -7.015625 C 1.140625 -7.492188 1.519531 -7.882812 2 -8.1875 C 2.488281 -8.488281 3.082031 -8.640625 3.78125 -8.640625 C 4.800781 -8.640625 5.566406 -8.394531 6.078125 -7.90625 C 6.585938 -7.414062 6.84375 -6.691406 6.84375 -5.734375 L 6.84375 -1.375 L 7.640625 -1.375 L 7.640625 0 Z M 3.515625 -1.109375 C 3.753906 -1.109375 3.972656 -1.144531 4.171875 -1.21875 C 4.367188 -1.289062 4.539062 -1.390625 4.6875 -1.515625 C 4.832031 -1.648438 4.945312 -1.804688 5.03125 -1.984375 C 5.125 -2.171875 5.171875 -2.363281 5.171875 -2.5625 L 5.171875 -3.734375 L 3.84375 -3.734375 C 2.800781 -3.734375 2.28125 -3.351562 2.28125 -2.59375 L 2.28125 -2.203125 C 2.28125 -1.828125 2.390625 -1.550781 2.609375 -1.375 C 2.828125 -1.195312 3.128906 -1.109375 3.515625 -1.109375 Z M 3.515625 -1.109375 "/></g></g></g><g fill="#001f40" fill-opacity="1"><g transform="translate(38.841429, 17.097776)"><g/></g></g><g fill="#001f40" fill-opacity="1"><g transform="translate(41.293711, 17.097776)"><g><path d="M 9.03125 -6.984375 L 9.15625 -8.921875 L 8.953125 -8.921875 L 8.171875 -7.015625 L 5.96875 -2.40625 L 3.765625 -7.015625 L 2.984375 -8.890625 L 2.796875 -8.890625 L 2.90625 -6.984375 L 2.90625 0 L 1.25 0 L 1.25 -11.34375 L 3.28125 -11.34375 L 5.125 -7.375 L 5.921875 -5.140625 L 6.0625 -5.140625 L 6.859375 -7.375 L 8.671875 -11.34375 L 10.6875 -11.34375 L 10.6875 0 L 9.03125 0 Z M 9.03125 -6.984375 "/></g></g></g><g fill="#001f40" fill-opacity="1"><g transform="translate(52.240465, 17.097776)"><g><path d="M 4.203125 0.1875 C 3.671875 0.1875 3.179688 0.101562 2.734375 -0.0625 C 2.296875 -0.238281 1.921875 -0.503906 1.609375 -0.859375 C 1.296875 -1.222656 1.046875 -1.679688 0.859375 -2.234375 C 0.679688 -2.796875 0.59375 -3.457031 0.59375 -4.21875 C 0.59375 -4.988281 0.675781 -5.648438 0.84375 -6.203125 C 1.007812 -6.765625 1.242188 -7.222656 1.546875 -7.578125 C 1.859375 -7.941406 2.226562 -8.207031 2.65625 -8.375 C 3.082031 -8.550781 3.566406 -8.640625 4.109375 -8.640625 C 5.179688 -8.640625 6.019531 -8.285156 6.625 -7.578125 C 7.226562 -6.878906 7.53125 -5.757812 7.53125 -4.21875 L 7.53125 -3.796875 L 2.359375 -3.796875 L 2.359375 -3.265625 C 2.359375 -2.597656 2.523438 -2.082031 2.859375 -1.71875 C 3.203125 -1.363281 3.675781 -1.1875 4.28125 -1.1875 C 4.78125 -1.1875 5.195312 -1.300781 5.53125 -1.53125 C 5.863281 -1.757812 6.144531 -2.078125 6.375 -2.484375 L 7.34375 -1.5625 C 7.039062 -1.03125 6.628906 -0.601562 6.109375 -0.28125 C 5.597656 0.03125 4.960938 0.1875 4.203125 0.1875 Z M 4.109375 -7.3125 C 3.546875 -7.3125 3.113281 -7.140625 2.8125 -6.796875 C 2.507812 -6.453125 2.359375 -5.941406 2.359375 -5.265625 L 2.359375 -4.921875 L 5.75 -4.921875 L 5.75 -5.265625 C 5.75 -6.628906 5.203125 -7.3125 4.109375 -7.3125 Z M 4.109375 -7.3125 "/></g></g></g><g fill="#001f40" fill-opacity="1"><g transform="translate(59.386637, 17.097776)"><g><path d="M 5.875 -1.375 L 5.6875 -1.375 C 5.539062 -0.882812 5.285156 -0.5 4.921875 -0.21875 C 4.566406 0.0507812 4.140625 0.1875 3.640625 0.1875 C 2.628906 0.1875 1.878906 -0.191406 1.390625 -0.953125 C 0.910156 -1.710938 0.671875 -2.800781 0.671875 -4.21875 C 0.671875 -5.644531 0.910156 -6.738281 1.390625 -7.5 C 1.878906 -8.257812 2.628906 -8.640625 3.640625 -8.640625 C 4.140625 -8.640625 4.566406 -8.5 4.921875 -8.21875 C 5.285156 -7.945312 5.539062 -7.5625 5.6875 -7.0625 L 5.875 -7.0625 L 5.875 -12.03125 L 7.5625 -12.03125 L 7.5625 0 L 5.875 0 Z M 4.234375 -1.234375 C 4.710938 -1.234375 5.101562 -1.359375 5.40625 -1.609375 C 5.71875 -1.859375 5.875 -2.195312 5.875 -2.625 L 5.875 -5.8125 C 5.875 -6.25 5.71875 -6.59375 5.40625 -6.84375 C 5.101562 -7.09375 4.710938 -7.21875 4.234375 -7.21875 C 3.660156 -7.21875 3.21875 -7.035156 2.90625 -6.671875 C 2.59375 -6.316406 2.4375 -5.816406 2.4375 -5.171875 L 2.4375 -3.28125 C 2.4375 -2.632812 2.59375 -2.128906 2.90625 -1.765625 C 3.21875 -1.410156 3.660156 -1.234375 4.234375 -1.234375 Z M 4.234375 -1.234375 "/></g></g></g></g></g></g></g></g></g></svg>